:FULLY-SPECIFIED
:FORCE-ALL-JOINTS-BE-3DOF
:DEGREES
1325
root -1.64562 14.3138 7.19622 357.711 12.2335 362.13
lfemur -25.8775 9.8064 -25.2622
ltibia 62.9698 0 0
lfoot -19.3494 24.9871 0
ltoes 0.35503 0 0
rfemur -44.9991 -11.7342 17.2907
rtibia 82.5857 0 0
rfoot -10.1466 -11.6096 0
rtoes -8.99002 0 0
lowerback 13.1036 1.4482 -9.12347
upperback -2.24069 0.474789 0.498608
thorax -9.95514 0.768412 5.60603
lowerneck -3.77777 -6.188 -7.97114
upperneck 8.08489 -8.47984 7.52438
head 3.81053 -4.15798 3.17495
lclavicle 1.31913e-14 -6.48121e-15 0
lhumerus 12.7013 -31.3442 88.0554
lradius 91.633 0 0
lwrist 45.9951 0 0
lhand -22.9816 41.2304 0
lfingers 7.12502 0 0
lthumb 3.46029 -275.107 0
rclavicle 1.31913e-14 -6.48121e-15 0
rhumerus 7.19217 19.1843 -75.3225
rradius 76.4432 0 0
rwrist -34.6931 0 0
rhand -22.4832 -50.7658 0
rfingers 7.12502 0 0
rthumb 3.94262 -80.3501 0
1326
root -1.67147 14.2926 7.43165 357.733 12.8775 362.149
lfemur -24.6079 9.45379 -24.6979
ltibia 62.6667 0 0
lfoot -19.6551 25.4202 0
ltoes -0.0986806 0 0
rfemur -45.1774 -11.847 16.9344
rtibia 81.547 0 0
rfoot -9.74373 -10.9109 0
rtoes -8.91976 0 0
lowerback 13.1015 1.4834 -9.17118
upperback -2.23798 0.513201 0.474746
thorax -9.95897 0.788398 5.59814
lowerneck -3.56701 -6.40747 -8.10136
upperneck 8.0098 -8.79386 7.64952
head 3.79727 -4.31779 3.2208
lclavicle 1.25948e-14 -6.73484e-15 0
lhumerus 9.34576 -30.8333 88.6344
lradius 91.9749 0 0
lwrist 46.5331 0 0
lhand -22.805 41.1983 0
lfingers 7.12502 0 0
lthumb 3.63079 -273.991 0
rclavicle 1.25948e-14 -6.73484e-15 0
rhumerus 9.56767 18.0467 -73.3504
rradius 76.8218 0 0
rwrist -32.1492 0 0
rhand -23.2425 -49.9485 0
rfingers 7.12502 0 0
rthumb 3.20987 -79.5225 0
1327
root -1.69732 14.2715 7.66707 357.75 13.5832 362.175
lfemur -23.2113 9.07424 -24.0914
ltibia 62.3085 0 0
lfoot -19.995 25.9052 0
ltoes -0.562244 0 0
rfemur -45.3847 -11.9751 16.5376
rtibia 80.4341 0 0
rfoot -9.28817 -10.1405 0
rtoes -8.83848 0 0
lowerback 13.0981 1.5226 -9.23286
upperback -2.23432 0.554266 0.446648
thorax -9.96179 0.810291 5.59294
lowerneck -3.3388 -6.64799 -8.24432
upperneck 7.93175 -9.13801 7.78792
head 3.78429 -4.49284 3.27126
lclavicle 1.19631e-14 -7.00271e-15 0
lhumerus 5.70809 -30.2668 89.2631
lradius 92.3623 0 0
lwrist 47.1473 0 0
lhand -22.6008 41.1646 0
lfingers 7.12502 0 0
lthumb 3.82789 -273.078 0
rclavicle 1.19631e-14 -7.00271e-15 0
rhumerus 12.1069 16.7978 -71.2438
rradius 77.1939 0 0
rwrist -29.3893 0 0
rhand -24.0757 -49.0863 0
rfingers 7.12502 0 0
rthumb 2.40574 -78.6492 0
1328
root -1.72317 14.2503 7.9025 357.761 14.3537 362.21
lfemur -21.6811 8.66667 -23.4408
ltibia 61.8913 0 0
lfoot -20.3713 26.4449 0
ltoes -1.03484 0 0
rfemur -45.6228 -12.1196 16.098
rtibia 79.2442 0 0
rfoot -8.77668 -9.29458 0
rtoes -8.74546 0 0
lowerback 13.0933 1.56601 -9.3096
upperback -2.22962 0.598077 0.414024
thorax -9.9635 0.834186 5.59069
lowerneck -3.09237 -6.91061 -8.40067
upperneck 7.85076 -9.51382 7.94029
head 3.77167 -4.6839 3.32656
lclavicle 1.12952e-14 -7.28514e-15 0
lhumerus 1.77562 -29.6418 89.9436
lradius 92.7979 0 0
lwrist 47.8423 0 0
lhand -22.3673 41.1291 0
lfingers 7.12502 0 0
lthumb 4.05333 -272.389 0
rclavicle 1.12952e-14 -7.28514e-15 0
rhumerus 14.8157 15.432 -68.9978
rradius 77.5573 0 0
rwrist -26.4037 0 0
rhand -24.9866 -48.1782 0
rfingers 7.12502 0 0
rthumb 1.52659 -77.7293 0
